# xmcd CD database file
#
# Track frame offsets:
#	150
#	24243
#	50876
#	79250
#	109051
#	134031
#	165407
#	186470
#	217092
#	235706
#
# Disc length: 3541 seconds
#
# Revision: 1
# Processed by: cddbd v1.5.2PL0 Copyright (c) Steve Scherf et al.
# Submitted via: CDex 1.70beta2
#
DISCID=8e0dd30a
DTITLE=The George Lewis Ragtime Jazz Band Of New Orleans - The Ultimate Jazz Archive Set 09
DYEAR=2005
DGENRE=Jazz
TTITLE0=South
TTITLE1=Hindustan
TTITLE2=Bourbon St. Parade 
TTITLE3=When The Saints
TTITLE4=High Society
TTITLE5=Ice Cream
TTITLE6=Tishomingo Blues
TTITLE7=Panama
TTITLE8=Darktown Strutter's Ball
TTITLE9=Milenberg Joys
EXTD=YEAR: 2005
EXTT0=
EXTT1=
EXTT2=
EXTT3=
EXTT4=
EXTT5=
EXTT6=
EXTT7=
EXTT8=
EXTT9=
PLAYORDER=
